<?xml version="1.0" encoding="utf-8"?>
<!-- Generator: Adobe Illustrator 18.0.0, SVG Export Plug-In . SVG Version: 6.00 Build 0)  -->
<!DOCTYPE svg PUBLIC "-//W3C//DTD SVG 1.1//EN" "http://www.w3.org/Graphics/SVG/1.1/DTD/svg11.dtd">
<svg version="1.1" id="Layer_1" xmlns="http://www.w3.org/2000/svg" xmlns:xlink="http://www.w3.org/1999/xlink" x="0px" y="0px"
	 viewBox="0 0 27.9 46" enable-background="new 0 0 27.9 46" xml:space="preserve">
<path fill="#4E4E4E" d="M25.4,0H2.5C1,0-0.1,0.4,0,1.9L2.3,42c0,0.8,0.4,1.5,1,2l0-0.1h0c0.5,2,1.1,2,1.7,2h17.6c0.6,0,1.3,0,1.7-2
	h0.3l0-0.4c0.4-0.5,0.7-1.2,0.7-1.9l2.3-39.8C28,0.5,26.9,0,25.4,0z M25.1,3L25.1,3l-0.2,4H3L2.7,3H25.1z"/>
</svg>
