<?xml version="1.0" encoding="UTF-8" standalone="no"?>
<svg width="20px" height="20px" viewBox="0 0 20 20" version="1.1" xmlns="http://www.w3.org/2000/svg" xmlns:xlink="http://www.w3.org/1999/xlink" xmlns:sketch="http://www.bohemiancoding.com/sketch/ns">
    <!-- Generator: Sketch 3.2.1 (9971) - http://www.bohemiancoding.com/sketch -->
    <title>Oval 116</title>
    <desc>Created with Sketch.</desc>
    <defs></defs>
    <g id="Page-1" stroke="none" stroke-width="1" fill="none" fill-rule="evenodd" sketch:type="MSPage">
        <path d="M10,20 C15.5228475,20 20,15.5228475 20,10 C20,4.4771525 15.5228475,0 10,0 C4.4771525,0 0,4.4771525 0,10 C0,15.5228475 4.4771525,20 10,20 Z M4.66121872,12.1428571 L6.86952114,14.2216267 L3.57142857,15.2656723 L4.66121872,12.1428571 L4.66121872,12.1428571 L4.66121872,12.1428571 L4.66121872,12.1428571 Z M5.71428571,11.4378933 L11.7954534,5.71428571 L13.9152785,7.7091587 L7.83378064,13.4327663 L5.71428571,11.4378933 L5.71428571,11.4378933 L5.71428571,11.4378933 L5.71428571,11.4378933 Z M12.8571429,5.31111629 L13.788136,4.40689816 C13.8875079,4.32610891 13.9964539,4.28571429 14.114974,4.28571429 C14.2338241,4.28571429 14.3427701,4.32610891 14.4421421,4.40689816 L15.9571518,5.83313913 C16.042988,5.92014293 16.0862363,6.02423677 16.0862363,6.14542065 C16.0862363,6.26660452 16.042988,6.36790181 15.9571518,6.44838033 L14.9766378,7.30598928 L12.8571429,5.31111629 L12.8571429,5.31111629 Z" id="Oval-116" fill="#FFFFFF" sketch:type="MSShapeGroup"></path>
    </g>
</svg>