<?xml version="1.0" encoding="UTF-8" standalone="no"?>
<svg width="20px" height="20px" viewBox="0 0 20 20" version="1.1" xmlns="http://www.w3.org/2000/svg" xmlns:xlink="http://www.w3.org/1999/xlink" xmlns:sketch="http://www.bohemiancoding.com/sketch/ns">
    <!-- Generator: Sketch 3.2.1 (9971) - http://www.bohemiancoding.com/sketch -->
    <title>Oval 115</title>
    <desc>Created with Sketch.</desc>
    <defs></defs>
    <g id="Page-1" stroke="none" stroke-width="1" fill="none" fill-rule="evenodd" sketch:type="MSPage">
        <path d="M10,20 C15.5228475,20 20,15.5228475 20,10 C20,4.4771525 15.5228475,0 10,0 C4.4771525,0 0,4.4771525 0,10 C0,15.5228475 4.4771525,20 10,20 Z M7.28505387,10.1223945 C7.44934978,11.0754564 7.95559494,11.6374734 8.67185031,11.4727672 C9.52086621,11.2779374 9.66328626,10.5990103 9.49864964,9.64562484 C9.39919296,9.06940327 9.26950083,8.72036935 9.26950083,8.72036935 L7.1549874,9.17666444 C7.1549874,9.17666444 7.18625443,9.54647433 7.28505387,10.1223945 Z M7.66357512,2.96971282 C8.32849025,2.88719177 9.25329415,3.38126067 9.54223524,5.38019182 C9.67140834,6.2724802 9.41195763,6.99448245 9.25715397,7.58851511 C9.19473979,7.82738614 9.10354779,7.9194088 8.89151048,7.88699471 C8.31439655,7.79786201 7.35797232,7.9051856 6.75531494,8.0839531 C6.58785781,8.13372769 6.48714722,8.02215729 6.45046922,7.89727283 C5.35299914,4.16583202 6.99904481,3.05254683 7.66357512,2.96971282 Z M11.4161532,13.7506047 C11.4161532,13.7506047 11.2803857,14.0973631 11.1708819,14.671828 C10.989652,15.6219603 11.1201646,16.3036914 11.9656495,16.5133244 C12.6789202,16.690519 13.1952189,16.1373821 13.3758165,15.1871945 C13.4849741,14.6130472 13.522378,14.243769 13.522378,14.243769 L11.4161532,13.7506047 Z M14.1694596,12.9664137 C14.1306071,13.0906479 14.0279352,13.2007898 13.8614036,13.14776 C13.2619347,12.9588306 12.3075676,12.8344916 11.7289902,12.9135482 C11.5163915,12.942598 11.4264602,12.8489604 11.3686167,12.608714 C11.2242388,12.0116919 10.9774058,11.2855607 11.1221367,10.3955998 C11.4459309,8.40187526 12.3792416,7.92364434 13.0425796,8.01809694 C13.7059175,8.11254954 15.3319009,9.25442918 14.1694596,12.9664137 Z" id="Oval-115" fill="#FFFFFF" sketch:type="MSShapeGroup"></path>
    </g>
</svg>