<?xml version="1.0" encoding="UTF-8" standalone="no"?>
<svg width="20px" height="20px" viewBox="0 0 20 20" version="1.1" xmlns="http://www.w3.org/2000/svg" xmlns:xlink="http://www.w3.org/1999/xlink" xmlns:sketch="http://www.bohemiancoding.com/sketch/ns">
    <!-- Generator: Sketch 3.2.1 (9971) - http://www.bohemiancoding.com/sketch -->
    <title>Oval 115</title>
    <desc>Created with Sketch.</desc>
    <defs></defs>
    <g id="Page-1" stroke="none" stroke-width="1" fill="none" fill-rule="evenodd" sketch:type="MSPage">
        <path d="M13.0555608,11.0815711 L13.0555608,13.5987213 C13.0555608,14.0659644 13.4320677,14.4453782 13.8965125,14.4453782 C14.3641954,14.4453782 14.7374643,14.066317 14.7374643,13.5987213 L14.7374643,6.46204152 C14.7374643,5.9947984 14.3609574,5.61538462 13.8965125,5.61538462 C13.4288297,5.61538462 13.0555608,5.99444582 13.0555608,6.46204152 L13.0555608,8.97919171 L7.16889836,8.97919171 L7.16889836,6.46204152 C7.16889836,5.99444582 6.79562945,5.61538462 6.32794659,5.61538462 C5.86350175,5.61538462 5.48699482,5.9947984 5.48699482,6.46204152 L5.48699482,13.5987213 C5.48699482,14.066317 5.86026373,14.4453782 6.32794659,14.4453782 C6.79239143,14.4453782 7.16889836,14.0659644 7.16889836,13.5987213 L7.16889836,11.0815711 L13.0555608,11.0815711 Z M10,20 C15.5228475,20 20,15.5228475 20,10 C20,4.4771525 15.5228475,0 10,0 C4.4771525,0 0,4.4771525 0,10 C0,15.5228475 4.4771525,20 10,20 Z M15.998892,6.87681227 C16.4633368,6.87681227 16.8398437,7.25246431 16.8398437,7.72742101 L16.8398437,12.3333418 C16.8398437,12.8031201 16.4665748,13.1839506 15.998892,13.1839506 C15.5344471,13.1839506 15.1579402,12.8082985 15.1579402,12.3333418 L15.1579402,7.72742101 C15.1579402,7.25764278 15.5312091,6.87681227 15.998892,6.87681227 Z M4.22556716,6.87681227 C3.76112232,6.87681227 3.38461538,7.25246431 3.38461538,7.72742101 L3.38461538,12.3333418 C3.38461538,12.8031201 3.75788429,13.1839506 4.22556716,13.1839506 C4.690012,13.1839506 5.06651893,12.8082985 5.06651893,12.3333418 L5.06651893,7.72742101 C5.06651893,7.25764278 4.69325002,6.87681227 4.22556716,6.87681227 Z" id="Oval-115" fill="#FFFFFF" sketch:type="MSShapeGroup"></path>
    </g>
</svg>