<?xml version="1.0" encoding="UTF-8" standalone="no"?>
<svg width="28px" height="28px" viewBox="0 0 28 28" version="1.1" xmlns="http://www.w3.org/2000/svg" xmlns:xlink="http://www.w3.org/1999/xlink" xmlns:sketch="http://www.bohemiancoding.com/sketch/ns">
    <!-- Generator: Sketch 3.2.1 (9971) - http://www.bohemiancoding.com/sketch -->
    <title>Alcohol Icon</title>
    <desc>Created with Sketch.</desc>
    <defs></defs>
    <g id="Page-1" stroke="none" stroke-width="1" fill="none" fill-rule="evenodd" sketch:type="MSPage">
        <g id="Alcohol-Icon" sketch:type="MSLayerGroup" fill="#FFFFFF">
            <path d="M10.4792327,9.8676052 C10.3473123,10.5877296 10.25,11.2927472 10.25,11.8056016 C10.25,12.0699059 10.25,11.8056016 10.25,11.8056016 C10.25,13.6404259 11.9289322,15.3166295 14,15.3166295 C16.0668536,15.3166295 17.75,13.7446888 17.75,11.8056016 C17.75,11.8056016 17.75,12.1946391 17.75,11.8056016 C17.75,11.3208112 17.6476322,10.6066346 17.51055,9.86760522 L10.4792327,9.86760519 Z M11.7374505,16.3989884 C12.2430052,17.258942 12.8322933,18.5667013 12.8802966,19.4619188 C12.8802966,19.4619188 12.8802966,18.6933711 12.8802966,19.4619188 C12.8802966,20.2059744 12.8530361,20.3221141 12.8239762,21.2728577 C12.8025728,21.9653351 11.4718606,22.2281381 11.4718606,22.2281381 C10.9430633,22.4027172 10.5064693,22.7361401 10.5,23 L17.5,23 C17.4995798,22.9794712 17.0602148,22.3963563 16.5297762,22.2410716 C16.5297762,22.2410716 15.1988491,22.0045289 15.176506,21.2728577 C15.1472661,20.3256682 15.1197034,20.2021084 15.1197034,19.4619188 C15.1197034,18.6856902 15.1197034,19.4619188 15.1197034,19.4619188 C15.1362569,18.9032916 15.609172,17.4591623 16.2188064,16.4202944 C17.8652983,15.6034346 19,13.9065769 19,11.9457229 L19,11.666956 C19,9.72460611 17.8744247,5.48563713 17.8744247,5.48563713 C17.806958,5.22037608 17.5296811,5.00097656 17.2579041,5.00097656 L10.7420959,5.00097656 C10.466372,5.00097656 10.2060857,5.22366429 10.1519146,5.49836353 C10.1519146,5.49836353 9,11.317032 9,11.666956 C9,12.01688 9,11.9334368 9,11.9334368 C9,13.8854665 10.1129761,15.5732918 11.7374505,16.3989884 L11.7374505,16.3989884 Z M14,28 C21.7319865,28 28,21.7319865 28,14 C28,6.2680135 21.7319865,6.57252031e-14 14,6.57252031e-14 C6.2680135,6.57252031e-14 0,6.2680135 0,14 C0,21.7319865 6.2680135,28 14,28 Z" id="Oval-124" sketch:type="MSShapeGroup"></path>
        </g>
    </g>
</svg>