<?xml version="1.0" encoding="UTF-8" standalone="no"?>
<svg width="20px" height="20px" viewBox="0 0 20 20" version="1.1" xmlns="http://www.w3.org/2000/svg" xmlns:xlink="http://www.w3.org/1999/xlink" xmlns:sketch="http://www.bohemiancoding.com/sketch/ns">
    <!-- Generator: Sketch 3.2.1 (9971) - http://www.bohemiancoding.com/sketch -->
    <title>Oval 115</title>
    <desc>Created with Sketch.</desc>
    <defs></defs>
    <g id="Page-1" stroke="none" stroke-width="1" fill="none" fill-rule="evenodd" sketch:type="MSPage">
        <path d="M10,20 C15.5228475,20 20,15.5228475 20,10 C20,4.4771525 15.5228475,0 10,0 C4.4771525,0 0,4.4771525 0,10 C0,15.5228475 4.4771525,20 10,20 Z M10.1147837,17.758215 C5.80396805,17.758215 2.30769231,14.2463069 2.30769231,9.91621689 C2.30769231,5.58612692 5.80396805,2.07421875 10.1147837,2.07421875 C14.4255993,2.07421875 17.921875,5.58612692 17.921875,9.91621689 C17.921875,14.2463069 14.4255993,17.758215 10.1147837,17.758215 Z M10.1147837,4.68821813 C7.24047286,4.68821813 4.91005609,7.02905458 4.91005609,9.91621689 C4.91005609,12.8033792 7.24047286,15.1442157 10.1147837,15.1442157 C12.9890945,15.1442157 15.3195112,12.8033792 15.3195112,9.91621689 C15.3195112,7.02905458 12.9890945,4.68821813 10.1147837,4.68821813 Z M10.1147837,11.2232166 C9.39653125,11.2232166 8.81360176,10.6389877 8.81360176,9.91621689 C8.81360176,9.19344606 10.1147837,5.99521782 10.1147837,5.99521782 C10.1147837,5.99521782 11.4159655,9.19344606 11.4159655,9.91621689 C11.4159655,10.6389877 10.8343372,11.2232166 10.1147837,11.2232166 Z" id="Oval-115" fill="#FFFFFF" sketch:type="MSShapeGroup"></path>
    </g>
</svg>