<?xml version="1.0" encoding="UTF-8" standalone="no"?>
<svg width="20px" height="20px" viewBox="0 0 20 20" version="1.1" xmlns="http://www.w3.org/2000/svg" xmlns:xlink="http://www.w3.org/1999/xlink" xmlns:sketch="http://www.bohemiancoding.com/sketch/ns">
    <!-- Generator: Sketch 3.2.1 (9971) - http://www.bohemiancoding.com/sketch -->
    <title>Oval 115</title>
    <desc>Created with Sketch.</desc>
    <defs></defs>
    <g id="Page-1" stroke="none" stroke-width="1" fill="none" fill-rule="evenodd" sketch:type="MSPage">
        <path d="M10,20 C15.5228475,20 20,15.5228475 20,10 C20,4.4771525 15.5228475,0 10,0 C4.4771525,0 0,4.4771525 0,10 C0,15.5228475 4.4771525,20 10,20 Z M12.41729,16.7438619 L9.38528005,16.7438619 L9.38528005,16.0943356 L11.0703216,13.7012039 L9.42520994,13.7012039 L9.42520994,12.8520282 L12.3746981,12.8520282 L12.3746981,13.4988925 L10.6896566,15.8946861 L12.41729,15.8946861 L12.41729,16.7438619 Z M7.48753303,12.7619536 L3.84912109,12.7619536 L3.84912109,11.9825221 L5.87117092,9.11076414 L3.89703697,9.11076414 L3.89703697,8.09175325 L7.43642276,8.09175325 L7.43642276,8.86799039 L5.41437294,11.7429428 L7.48753303,11.7429428 L7.48753303,12.7619536 Z M14.671875,10.0625943 L9.82065909,10.0625943 L9.82065909,9.02335229 L12.5167255,5.19434166 L9.88454692,5.19434166 L9.88454692,3.83566047 L14.603728,3.83566047 L14.603728,4.87064332 L11.9076615,8.70391314 L14.671875,8.70391314 L14.671875,10.0625943 Z" id="Oval-115" fill="#FFFFFF" sketch:type="MSShapeGroup"></path>
    </g>
</svg>