<?xml version="1.0" encoding="UTF-8" standalone="no"?>
<svg width="20px" height="20px" viewBox="0 0 20 20" version="1.1" xmlns="http://www.w3.org/2000/svg" xmlns:xlink="http://www.w3.org/1999/xlink" xmlns:sketch="http://www.bohemiancoding.com/sketch/ns">
    <!-- Generator: Sketch 3.2.1 (9971) - http://www.bohemiancoding.com/sketch -->
    <title>Oval 117</title>
    <desc>Created with Sketch.</desc>
    <defs></defs>
    <g id="Page-1" stroke="none" stroke-width="1" fill="none" fill-rule="evenodd" sketch:type="MSPage">
        <path d="M10,20 C15.5228475,20 20,15.5228475 20,10 C20,4.4771525 15.5228475,0 10,0 C4.4771525,0 0,4.4771525 0,10 C0,15.5228475 4.4771525,20 10,20 Z M9.99497394,6.5275326 C10.3273873,6.03671885 10.7072882,5.6632736 11.1332903,5.40719686 C11.559639,5.15112012 11.9811349,5.0159685 12.3970849,5.00174202 C12.8126882,4.98751553 13.2234388,5.06042627 13.62899,5.22047424 C14.0345412,5.3805222 14.3901784,5.60814597 14.6948617,5.90334555 C14.9998917,6.19854512 15.2459954,6.55598558 15.4331729,6.9756669 C15.620697,7.39534823 15.7142857,7.83281266 15.7142857,8.2880602 C15.7142857,8.69351505 15.5978197,9.11141806 15.365581,9.54176925 C15.1333423,9.97212044 14.8078615,10.4149198 14.3880986,10.8701673 C13.9686824,11.3254149 13.5302019,11.7788841 13.0726569,12.230575 C12.615112,12.682266 12.0951745,13.2246507 11.5128446,13.8577293 C10.9305147,14.4911636 10.4244423,15.1096601 9.99497394,15.7142857 C9.56481237,15.1096601 9.06081968,14.4911636 8.481956,13.8577293 C7.90309233,13.2246507 7.38454139,12.682266 6.92699645,12.230575 C6.46945151,11.7788841 6.03097094,11.3254149 5.61190137,10.8701673 C5.19248517,10.4149198 4.86631109,9.97212044 4.63407237,9.54176925 C4.40148702,9.11141806 4.28571429,8.69351505 4.28571429,8.2880602 C4.28571429,7.83281266 4.38276927,7.39534823 4.57687925,6.9756669 C4.77133585,6.55598558 5.02402544,6.19854512 5.3359879,5.90334555 C5.64795036,5.60814597 6.01017344,5.3805222 6.42265714,5.22047424 C6.83514084,5.06042627 7.24762454,4.98751553 7.66010823,5.00174202 C8.07259193,5.0159685 8.48854188,5.15289843 8.90795808,5.41253179 C9.32737427,5.67252082 9.68959735,6.04383209 9.99497394,6.5275326 Z" id="Oval-117" fill="#FFFFFF" sketch:type="MSShapeGroup"></path>
    </g>
</svg>