<?xml version="1.0" encoding="UTF-8" standalone="no"?>
<svg width="25px" height="25px" viewBox="0 0 25 25" version="1.1" xmlns="http://www.w3.org/2000/svg" xmlns:xlink="http://www.w3.org/1999/xlink" xmlns:sketch="http://www.bohemiancoding.com/sketch/ns">
    <!-- Generator: Sketch 3.2.1 (9971) - http://www.bohemiancoding.com/sketch -->
    <title>Rectangle 494</title>
    <desc>Created with Sketch.</desc>
    <defs></defs>
    <g id="Page-1" stroke="none" stroke-width="1" fill="none" fill-rule="evenodd" sketch:type="MSPage">
        <path d="M7,12.5 C7,9.46243388 9.46861471,7 12.5,7 C15.5375661,7 18,9.46861471 18,12.5 C18,15.5375661 15.5313853,18 12.5,18 C9.46243388,18 7,15.5313853 7,12.5 Z M10,12.5 C10,11.1192881 11.1096621,10 12.5,10 C13.8807119,10 15,11.1096621 15,12.5 C15,13.8807119 13.8903379,15 12.5,15 C11.1192881,15 10,13.8903379 10,12.5 Z M11,21.5001649 C11,20.6716467 11.6657972,20 12.5,20 C13.3284271,20 14,20.6743222 14,21.5001649 L14,23.4998351 C14,24.3283533 13.3342028,25 12.5,25 C11.6715729,25 11,24.3256778 11,23.4998351 L11,21.5001649 Z M11,1.50016487 C11,0.671646689 11.6657972,0 12.5,0 C13.3284271,0 14,0.674322248 14,1.50016487 L14,3.49983513 C14,4.32835331 13.3342028,5 12.5,5 C11.6715729,5 11,4.32567775 11,3.49983513 L11,1.50016487 Z M1.50016487,14 C0.671646689,14 4.07683225e-17,13.3342028 9.18485099e-17,12.5 C1.42575041e-16,11.6715729 0.674322248,11 1.50016487,11 L3.49983513,11 C4.32835331,11 5,11.6657972 5,12.5 C5,13.3284271 4.32567775,14 3.49983513,14 L1.50016487,14 Z M21.5001649,14 C20.6716467,14 20,13.3342028 20,12.5 C20,11.6715729 20.6743222,11 21.5001649,11 L23.4998351,11 C24.3283533,11 25,11.6657972 25,12.5 C25,13.3284271 24.3256778,14 23.4998351,14 L21.5001649,14 Z M5.14633003,17.7323496 C5.73218085,17.1464988 6.67789652,17.1423626 7.26776695,17.732233 C7.85355339,18.3180195 7.85160929,19.2697111 7.26765037,19.85367 L5.85366997,21.2676504 C5.26781915,21.8535012 4.32210348,21.8576374 3.73223305,21.267767 C3.14644661,20.6819805 3.14839071,19.7302889 3.73234963,19.14633 L5.14633003,17.7323496 Z M19.14633,3.73234963 C19.7321809,3.1464988 20.6778965,3.14236261 21.267767,3.73223305 C21.8535534,4.31801948 21.8516093,5.26971105 21.2676504,5.85366997 L19.85367,7.26765037 C19.2678191,7.8535012 18.3221035,7.85763739 17.732233,7.26776695 C17.1464466,6.68198052 17.1483907,5.73028895 17.7323496,5.14633003 L19.14633,3.73234963 Z M17.7323496,19.85367 C17.1464988,19.2678191 17.1423626,18.3221035 17.732233,17.732233 C18.3180195,17.1464466 19.2697111,17.1483907 19.85367,17.7323496 L21.2676504,19.14633 C21.8535012,19.7321809 21.8576374,20.6778965 21.267767,21.267767 C20.6819805,21.8535534 19.7302889,21.8516093 19.14633,21.2676504 L17.7323496,19.85367 Z M3.73234963,5.85366997 C3.1464988,5.26781915 3.14236261,4.32210348 3.73223305,3.73223305 C4.31801948,3.14644661 5.26971105,3.14839071 5.85366997,3.73234963 L7.26765037,5.14633003 C7.8535012,5.73218085 7.85763739,6.67789652 7.26776695,7.26776695 C6.68198052,7.85355339 5.73028895,7.85160929 5.14633003,7.26765037 L3.73234963,5.85366997 Z" id="Rectangle-494" fill="#D8D8D8" sketch:type="MSShapeGroup"></path>
    </g>
</svg>