<?xml version="1.0" encoding="UTF-8" standalone="no"?>
<svg width="20px" height="20px" viewBox="0 0 20 20" version="1.1" xmlns="http://www.w3.org/2000/svg" xmlns:xlink="http://www.w3.org/1999/xlink" xmlns:sketch="http://www.bohemiancoding.com/sketch/ns">
    <!-- Generator: Sketch 3.2.1 (9971) - http://www.bohemiancoding.com/sketch -->
    <title>Oval 115</title>
    <desc>Created with Sketch.</desc>
    <defs></defs>
    <g id="Page-1" stroke="none" stroke-width="1" fill="none" fill-rule="evenodd" sketch:type="MSPage">
        <path d="M10,20 C15.5228475,20 20,15.5228475 20,10 C20,4.4771525 15.5228475,0 10,0 C4.4771525,0 0,4.4771525 0,10 C0,15.5228475 4.4771525,20 10,20 Z M4.27487926,8.93896427 C3.45201793,8.93896427 2.78495702,9.59830328 2.78495702,10.4244143 C2.78495702,11.2448057 3.44248466,11.9098643 4.27487926,11.9098643 L15.7251207,11.9098643 C16.5479821,11.9098643 17.215043,11.2505253 17.215043,10.4244143 C17.215043,9.6040229 16.5575153,8.93896427 15.7251207,8.93896427 L4.27487926,8.93896427 Z M4.0581999,8.09013568 C4.0581999,8.09013568 4.0581999,5.11923563 9.94756991,5.11923563 C15.8369399,5.11923563 15.9418001,8.09013568 15.9418001,8.09013568 L4.0581999,8.09013568 Z M4.0581999,12.7586929 L4.0581999,13.8197286 C4.0581999,14.4057225 4.52953307,14.8807644 5.11429468,14.8807644 L10.1794642,14.8807644 L14.8744694,14.8807644 C15.4639399,14.8807644 15.9418001,14.4098079 15.9418001,13.8197286 L15.9418001,12.7586929 L4.0581999,12.7586929 Z" id="Oval-115" fill="#FFFFFF" sketch:type="MSShapeGroup"></path>
    </g>
</svg>