<?xml version="1.0" encoding="utf-8"?>
<!-- Generator: Adobe Illustrator 18.0.0, SVG Export Plug-In . SVG Version: 6.00 Build 0)  -->
<!DOCTYPE svg PUBLIC "-//W3C//DTD SVG 1.1//EN" "http://www.w3.org/Graphics/SVG/1.1/DTD/svg11.dtd">
<svg version="1.1" id="Layer_1" xmlns="http://www.w3.org/2000/svg" xmlns:xlink="http://www.w3.org/1999/xlink" x="0px" y="0px"
	 viewBox="0 0 25.3 51" enable-background="new 0 0 25.3 51" xml:space="preserve">
<path fill="#4E4E4E" d="M23,26H2.3c-1.3,0-2.3,0.8-2.2,1.6l2.1,21.6C2.2,49.9,3.3,51,4.6,51h16c1.3,0,2.4-1,2.5-1.7l2.1-21.6
	C25.3,26.9,24.3,26,23,26z M22.1,29L21,41H4.3L3.2,29H22.1z"/>
<path fill="#4E4E4E" d="M23,0H2.3C0.9,0-0.1,0.8,0,1.6l2.1,21.5C2.2,23.9,3.3,25,4.6,25h16c1.3,0,2.4-1,2.5-1.7l2.1-21.6
	C25.3,0.9,24.3,0,23,0z M22.1,3L21,15H4.3L3.2,3H22.1z"/>
</svg>
