<?xml version="1.0" encoding="UTF-8" standalone="no"?>
<svg width="30px" height="30px" viewBox="0 0 30 30" version="1.1" xmlns="http://www.w3.org/2000/svg" xmlns:xlink="http://www.w3.org/1999/xlink" xmlns:sketch="http://www.bohemiancoding.com/sketch/ns">
    <!-- Generator: Sketch 3.2.1 (9971) - http://www.bohemiancoding.com/sketch -->
    <title>Untitled 2</title>
    <desc>Created with Sketch.</desc>
    <defs></defs>
    <g id="Page-1" stroke="none" stroke-width="1" fill="none" fill-rule="evenodd" sketch:type="MSPage">
        <path d="M12.1468308,25.1429817 C11.349293,24.9314153 10.5859005,24.6140657 9.85340147,24.1909329 L9.73145379,24.1176983 L6.48764554,26.0950305 C5.51206411,25.3464109 4.65843036,24.4920081 3.92674429,23.5318221 L5.87790715,20.26068 L5.80473854,20.1386225 C5.41450597,19.4225516 5.10557185,18.6657948 4.87793618,17.8683522 L4.82997009,17.7218832 L1.14633721,16.7942459 C1.04877907,16.126998 1,15.5248474 1,14.9877942 C1,14.5809358 1.04877907,13.9869224 1.14633721,13.2057541 L4.82997009,12.2781168 L4.87793618,12.1316478 C5.08931216,11.3838419 5.39824628,10.6262714 5.80473854,9.86137751 L5.87790715,9.73931997 L3.92674429,6.46817786 C4.67469005,5.5242662 5.5283238,4.67067713 6.48764554,3.90496949 L9.73145379,5.88230166 L9.85340147,5.80906713 C10.5688279,5.40220866 11.3338463,5.08485905 12.1468308,4.85701831 L12.2687785,4.8326068 L13.1947679,1.12205754 C13.9589733,1.04068585 14.5605819,1 14.9995935,1 C15.552423,1 16.1540315,1.04068585 16.8052321,1.12205754 L17.7312215,4.8326068 L17.8775587,4.85701831 C18.6580239,5.08485905 19.4140995,5.40220866 20.1457855,5.80906713 L20.2685462,5.88230166 L23.535931,3.90496949 C24.5123254,4.67067713 25.3578293,5.5242662 26.0724427,6.46817786 L24.1220929,9.73931997 L24.1952615,9.86137751 C24.5684214,10.5448997 24.8854853,11.3016565 25.1464534,12.1316478 L25.1700299,12.2781168 L28.8780523,13.2057541 C28.9585378,13.9380994 29,14.5321128 29,14.9877942 C29,15.5411218 28.9585378,16.1432723 28.8780523,16.7942459 L25.1700299,17.7218832 L25.1464534,17.8683522 C24.901745,18.6657948 24.584681,19.4225516 24.1952615,20.1386225 L24.1220929,20.26068 L26.0724427,23.5318221 C25.2919776,24.5245568 24.4456607,25.3789596 23.535931,26.0950305 L20.2685462,24.1176983 L20.1457855,24.1909329 C19.3815801,24.6140657 18.6246915,24.9314153 17.8775587,25.1429817 L17.7312215,25.1918047 L16.8052321,28.8779425 C16.0402137,28.9593142 15.4386052,29 14.9995935,29 C14.447577,29 13.8451555,28.9593142 13.1947679,28.8779425 L12.2687785,25.1918047 L12.1468308,25.1429817 L12.1468308,25.1429817 L12.1468308,25.1429817 L12.1468308,25.1429817 Z M9.75584333,14.9877942 C9.75584333,16.4370241 10.2680236,17.6730602 11.2923841,18.6983435 C12.3175576,19.7236269 13.5524811,20.2362685 14.9995935,20.2362685 C16.446706,20.2362685 17.6824424,19.7236269 18.7076159,18.6983435 C19.7319764,17.6730602 20.2441567,16.4370241 20.2441567,14.9877942 C20.2441567,13.5556524 19.7319764,12.3269398 18.7076159,11.3016565 C17.6824424,10.2763731 16.446706,9.76373147 14.9995935,9.76373147 C13.5524811,9.76373147 12.3175576,10.2763731 11.2923841,11.3016565 C10.2680236,12.3269398 9.75584333,13.5556524 9.75584333,14.9877942 L9.75584333,14.9877942 Z" id="Settings" stroke="#70A17F" fill="#82BE99" sketch:type="MSShapeGroup"></path>
    </g>
</svg>