<?xml version="1.0" encoding="UTF-8" standalone="no"?>
<svg width="30px" height="30px" viewBox="0 0 30 30" version="1.1" xmlns="http://www.w3.org/2000/svg" xmlns:xlink="http://www.w3.org/1999/xlink" xmlns:sketch="http://www.bohemiancoding.com/sketch/ns">
    <!-- Generator: Sketch 3.2.1 (9971) - http://www.bohemiancoding.com/sketch -->
    <title>Slice 1</title>
    <desc>Created with Sketch.</desc>
    <defs></defs>
    <g id="Page-1" stroke="none" stroke-width="1" fill="none" fill-rule="evenodd" sketch:type="MSPage">
        <path d="M1,4.25244141 C1,3.90244141 1.12083333,3.60660807 1.36333333,3.36410807 C1.60416667,3.12327474 1.9,3.00244141 2.25,3.00244141 L6,3.00244141 L6,1 L9,1 L9,3.00244141 L21,3.00244141 L21,1 L24,1 L24,3.00244141 L27.75,3.00244141 C28.1,3.00244141 28.3966667,3.12327474 28.6375,3.36410807 C28.8791667,3.60660807 29,3.90244141 29,4.25244141 L29,7 L1,7 L1,4.25244141 Z M29,27.75 C29,28.0833333 28.8791667,28.375 28.6375,28.6241667 C28.3966667,28.875 28.1,29 27.75,29 L2.25,29 C1.9,29 1.60416667,28.875 1.36333333,28.6241667 C1.12083333,28.375 1,28.0833333 1,27.75 L1,11 L29,11 L29,27.75 Z M4,16 L6,16 L6,14 L4,14 L4,16 Z M4,21 L6,21 L6,19 L4,19 L4,21 Z M4,26 L6,26 L6,24 L4,24 L4,26 Z M9,16 L11,16 L11,14 L9,14 L9,16 Z M9,21 L11,21 L11,19 L9,19 L9,21 Z M9,26 L11,26 L11,24 L9,24 L9,26 Z M14,16 L16,16 L16,14 L14,14 L14,16 Z M14,21 L16,21 L16,19 L14,19 L14,21 Z M14,26 L16,26 L16,24 L14,24 L14,26 Z M19,16 L21,16 L21,14 L19,14 L19,16 Z M19,21 L21,21 L21,19 L19,19 L19,21 Z M19,26 L21,26 L21,24 L19,24 L19,26 Z M24,16 L26,16 L26,14 L24,14 L24,16 Z M24,21 L26,21 L26,19 L24,19 L24,21 Z M24,26 L26,26 L26,24 L24,24 L24,26 Z" id="This-Week" stroke="#70A17F" fill="#82BE99" sketch:type="MSShapeGroup"></path>
    </g>
</svg>