<?xml version="1.0" encoding="UTF-8" standalone="no"?>
<svg width="30px" height="30px" viewBox="0 0 30 30" version="1.1" xmlns="http://www.w3.org/2000/svg" xmlns:xlink="http://www.w3.org/1999/xlink" xmlns:sketch="http://www.bohemiancoding.com/sketch/ns">
    <!-- Generator: Sketch 3.2.1 (9971) - http://www.bohemiancoding.com/sketch -->
    <title>Slice 1</title>
    <desc>Created with Sketch.</desc>
    <defs></defs>
    <g id="Page-1" stroke="none" stroke-width="1" fill="none" fill-rule="evenodd" sketch:type="MSPage">
        <path d="M26.0053721,15.9552283 L26.0053718,26.9904405 C26.0053717,28.1003536 25.1188169,28.9995018 23.9994528,28.9987265 L19.0053721,28.9952674 L19.0053721,22.9854604 C19.0053721,21.3284941 17.666352,19.9852576 16.0037066,19.9852576 L14.0070376,19.9852576 C12.3492635,19.9852576 11.0053721,21.3341471 11.0053721,22.9854604 L11.0053721,28.9952674 L6.01129115,28.9987266 C4.90345264,28.999494 4.00537209,28.1034881 4.00537209,26.9904406 L4.00537209,15.9552283 L4.00537209,15.9552283 C0.719277411,15.9552283 0.015821394,14.1331168 2.45239791,11.8684766 L13.541691,1.5616961 C14.3477251,0.81253962 15.6553821,0.812996347 16.4613266,1.5616961 L27.5561525,11.8684766 C29.9857748,14.1255272 29.2762748,15.9552283 26.0053721,15.9552283 L26.0053721,15.9552283 Z" id="Home" stroke="#70A17F" fill="#82BE99" sketch:type="MSShapeGroup"></path>
    </g>
</svg>