<?xml version="1.0" encoding="UTF-8" standalone="no"?>
<svg width="30px" height="30px" viewBox="0 0 30 30" version="1.1" xmlns="http://www.w3.org/2000/svg" xmlns:xlink="http://www.w3.org/1999/xlink" xmlns:sketch="http://www.bohemiancoding.com/sketch/ns">
    <!-- Generator: Sketch 3.2.1 (9971) - http://www.bohemiancoding.com/sketch -->
    <title>Slice 1</title>
    <desc>Created with Sketch.</desc>
    <defs></defs>
    <g id="Page-1" stroke="none" stroke-width="1" fill="none" fill-rule="evenodd" sketch:type="MSPage">
        <path d="M1,16.9985023 C1,16.4470447 1.44335318,16 2.0093689,16 L3.9906311,16 C4.54809015,16 5,16.4474894 5,16.9985023 L5,28.0014977 C5,28.5529553 4.55664682,29 3.9906311,29 L2.0093689,29 C1.45190985,29 1,28.5525106 1,28.0014977 L1,16.9985023 Z M9,4.99545703 C9,4.44568129 9.44335318,4 10.0093689,4 L11.9906311,4 C12.5480902,4 13,4.45526288 13,4.99545703 L13,28.004543 C13,28.5543187 12.5566468,29 11.9906311,29 L10.0093689,29 C9.45190985,29 9,28.5447371 9,28.004543 L9,4.99545703 Z M17,10.9947712 C17,10.4453742 17.4433532,10 18.0093689,10 L19.9906311,10 C20.5480902,10 21,10.4509254 21,10.9947712 L21,28.0052288 C21,28.5546258 20.5566468,29 19.9906311,29 L18.0093689,29 C17.4519098,29 17,28.5490746 17,28.0052288 L17,10.9947712 Z M25,1.99653482 C25,1.44616384 25.4433532,1 26.0093689,1 L27.9906311,1 C28.5480902,1 29,1.43981314 29,1.99653482 L29,28.0034652 C29,28.5538362 28.5566468,29 27.9906311,29 L26.0093689,29 C25.4519098,29 25,28.5601869 25,28.0034652 L25,1.99653482 Z" id="Rectangle-443" stroke="#70A17F" fill="#82BE99" sketch:type="MSShapeGroup"></path>
    </g>
</svg>